<?xml version="1.0" standalone="no"?>
<!DOCTYPE svg PUBLIC "-//W3C//DTD SVG 20010904//EN"
 "http://www.w3.org/TR/2001/REC-SVG-20010904/DTD/svg10.dtd">
<svg version="1.0" xmlns="http://www.w3.org/2000/svg"
 width="400.000000pt" height="400.000000pt" viewBox="0 0 400.000000 400.000000"
 preserveAspectRatio="xMidYMid meet">
<metadata>
Created by potrace 1.11, written by Peter Selinger 2001-2013
</metadata>
<g transform="translate(0.000000,400.000000) scale(0.100000,-0.100000)"
fill="#000000" stroke="none">
<path d="M0 2000 l0 -2000 2000 0 2000 0 0 2000 0 2000 -2000 0 -2000 0 0
-2000z m1822 717 c130 -38 204 -92 248 -183 34 -71 35 -206 1 -281 -46 -103
-165 -188 -303 -217 -69 -15 -68 -15 58 -36 39 -6 94 -22 123 -36 29 -13 54
-24 56 -24 1 0 66 180 145 400 l143 400 62 0 62 0 238 -667 c131 -368 246
-684 256 -705 24 -47 63 -77 111 -84 93 -15 21 -24 -198 -24 -130 0 -233 4
-230 9 3 4 27 11 53 14 35 4 53 12 71 32 31 37 26 62 -57 300 l-66 190 -232 3
-232 2 16 -42 c10 -27 16 -75 17 -129 0 -78 -3 -93 -32 -152 -34 -68 -89 -126
-149 -155 -30 -14 -34 -14 -53 3 -25 23 -25 37 1 61 87 78 110 295 45 422 -69
134 -197 182 -488 182 l-118 0 0 -354 0 -353 46 -7 c26 -3 73 -6 105 -6 33 0
59 -4 59 -10 0 -6 -93 -10 -260 -10 -143 0 -260 4 -260 9 0 4 20 11 45 13 54
7 92 29 108 66 17 37 23 1191 7 1268 -14 65 -42 91 -111 100 -27 4 -49 11 -49
16 0 6 134 8 353 6 289 -4 362 -7 409 -21z m152 -970 c5 -25 -5 -66 -40 -168
-53 -149 -61 -223 -31 -256 19 -22 79 -43 121 -43 14 0 26 -4 26 -10 0 -6 -80
-10 -221 -10 -208 0 -266 9 -169 25 99 17 143 78 229 322 36 100 68 180 72
178 4 -3 10 -20 13 -38z"/>
<path d="M1370 2369 l0 -341 163 5 c176 5 227 16 304 69 30 20 51 47 75 95 31
64 33 74 33 173 0 88 -4 113 -23 155 -62 135 -174 185 -419 185 l-133 0 0
-341z"/>
<path d="M2176 2273 l-127 -366 28 -29 29 -28 236 2 236 3 -134 389 c-74 215
-136 391 -138 393 -1 2 -60 -162 -130 -364z"/>
</g>
</svg>
